<mxfile host="app.diagrams.net" modified="2023-06-02T10:13:39.728Z" agent="Mozilla/5.0 (Windows NT 10.0; Win64; x64) AppleWebKit/537.36 (KHTML, like Gecko) Chrome/114.0.0.0 Safari/537.36" etag="FSg5I2dChAVY8EgzfWQr" version="21.3.7" type="github">
  <diagram name="Page-1" id="Jh2B1e0-qrUIx0RkJpt5">
    <mxGraphModel dx="600" dy="332" grid="1" gridSize="10" guides="1" tooltips="1" connect="1" arrows="1" fold="1" page="1" pageScale="1" pageWidth="850" pageHeight="1100" math="0" shadow="0">
      <root>
        <mxCell id="0" />
        <mxCell id="1" parent="0" />
        <mxCell id="gVvINU71AqgDx6aEJBUT-1" value="" style="rounded=0;whiteSpace=wrap;html=1;" vertex="1" parent="1">
          <mxGeometry x="280" y="120" width="240" height="270" as="geometry" />
        </mxCell>
        <mxCell id="gVvINU71AqgDx6aEJBUT-2" value="&lt;i&gt;type address here..&lt;span style=&quot;white-space: pre;&quot;&gt;&#x9;&lt;/span&gt;&lt;/i&gt;" style="rounded=0;whiteSpace=wrap;html=1;" vertex="1" parent="1">
          <mxGeometry x="300" y="140" width="120" height="20" as="geometry" />
        </mxCell>
        <mxCell id="gVvINU71AqgDx6aEJBUT-3" value="enter" style="rounded=1;whiteSpace=wrap;html=1;" vertex="1" parent="1">
          <mxGeometry x="430" y="140" width="70" height="20" as="geometry" />
        </mxCell>
        <mxCell id="gVvINU71AqgDx6aEJBUT-4" value="" style="rounded=0;whiteSpace=wrap;html=1;" vertex="1" parent="1">
          <mxGeometry x="300" y="180" width="200" height="140" as="geometry" />
        </mxCell>
        <mxCell id="gVvINU71AqgDx6aEJBUT-6" value="Start" style="rounded=1;whiteSpace=wrap;html=1;" vertex="1" parent="1">
          <mxGeometry x="410" y="320" width="90" height="30" as="geometry" />
        </mxCell>
        <mxCell id="gVvINU71AqgDx6aEJBUT-7" value="Save" style="rounded=1;whiteSpace=wrap;html=1;" vertex="1" parent="1">
          <mxGeometry x="410" y="360" width="90" height="30" as="geometry" />
        </mxCell>
        <mxCell id="gVvINU71AqgDx6aEJBUT-9" value="press start to run/running" style="text;html=1;strokeColor=none;fillColor=none;align=center;verticalAlign=middle;whiteSpace=wrap;rounded=0;" vertex="1" parent="1">
          <mxGeometry x="275" y="340" width="135" height="30" as="geometry" />
        </mxCell>
        <mxCell id="gVvINU71AqgDx6aEJBUT-10" value="www.bbc.co.uk&amp;nbsp;&lt;span style=&quot;&quot;&gt;&lt;span style=&quot;&quot;&gt;&amp;nbsp;&amp;nbsp;&amp;nbsp;&amp;nbsp;&lt;span style=&quot;white-space: pre;&quot;&gt;&#x9;&lt;/span&gt;&lt;/span&gt;&lt;/span&gt;connected&amp;nbsp;&lt;u style=&quot;border-color: var(--border-color);&quot;&gt;&lt;sub style=&quot;border-color: var(--border-color);&quot;&gt;&lt;font style=&quot;border-color: var(--border-color); font-size: 8px;&quot; color=&quot;#3333ff&quot;&gt;details&lt;/font&gt;&lt;/sub&gt;&lt;/u&gt;&lt;br&gt;www.secutix.com&amp;nbsp;&lt;span style=&quot;&quot;&gt;&lt;span style=&quot;&quot;&gt;&amp;nbsp;&amp;nbsp;&amp;nbsp;&lt;/span&gt;&lt;/span&gt;connected&amp;nbsp;&lt;u&gt;&lt;sub&gt;&lt;font color=&quot;#3333ff&quot; style=&quot;font-size: 8px;&quot;&gt;details&lt;/font&gt;&lt;/sub&gt;&lt;/u&gt;&lt;br&gt;" style="text;html=1;strokeColor=none;fillColor=none;align=left;verticalAlign=top;whiteSpace=wrap;rounded=0;" vertex="1" parent="1">
          <mxGeometry x="300" y="180" width="200" height="140" as="geometry" />
        </mxCell>
      </root>
    </mxGraphModel>
  </diagram>
</mxfile>
